# 3ds Max Wavefront OBJ Exporter v0.97b - (c)2007 guruware
# File Created: 28.10.2019 16:26:30

mtllib GoldenBay.mtl

#
# object GoldenBay
#

v  -2.7078 0.0000 -11.9973
v  -2.7078 18.7920 -11.9973
v  -0.3539 18.7920 -11.1100
v  -0.3539 0.0000 -11.1100
v  -31.2351 0.0000 27.5832
v  -31.2351 18.7920 27.5832
v  -30.2452 18.7920 24.9572
v  -30.2452 0.0000 24.9572
v  -36.7657 0.0000 85.4821
v  -36.7657 18.7920 85.4821
v  -39.1196 18.7920 84.5947
v  -39.1196 0.0000 84.5947
v  -2.7078 20.8800 -11.9973
v  -2.7078 104.4000 -11.9973
v  -0.3539 104.4000 -11.1100
v  -0.3539 20.8800 -11.1100
v  -28.7929 20.8800 28.5038
v  -28.7929 104.4000 28.5038
v  -27.8030 104.4000 25.8778
v  -27.8030 20.8800 25.8778
v  -36.7657 20.8800 85.4821
v  -36.7657 104.4000 85.4821
v  -39.1196 104.4000 84.5947
v  -39.1196 20.8800 84.5947
v  -14.5562 0.0000 -16.4637
v  -14.5562 18.7920 -16.4637
v  -10.0225 18.7920 -14.7547
v  -10.0225 0.0000 -14.7547
v  12.2873 20.8800 -7.0016
v  12.2873 18.7920 -7.0016
v  7.7534 18.7920 -8.7112
v  7.7534 20.8800 -8.7112
v  -24.9174 0.0000 89.9485
v  -24.9174 18.7920 89.9485
v  -29.4510 18.7920 88.2394
v  -29.4510 0.0000 88.2394
v  -51.7603 20.8800 80.4875
v  -51.7603 18.7920 80.4875
v  -47.2269 18.7920 82.1960
v  -47.2269 20.8800 82.1960
v  -14.5562 20.8800 -16.4637
v  -14.5562 104.4000 -16.4637
v  -10.0225 104.4000 -14.7547
v  -10.0225 20.8800 -14.7547
v  11.4944 104.4000 -6.6436
v  11.4944 20.8800 -6.6436
v  6.9607 20.8800 -8.3526
v  6.9607 104.4000 -8.3526
v  -24.9174 20.8800 89.9485
v  -24.9174 104.4000 89.9485
v  -29.4510 104.4000 88.2394
v  -29.4510 20.8800 88.2394
v  -50.9679 104.4000 80.1283
v  -50.9679 20.8800 80.1283
v  -46.4342 20.8800 81.8374
v  -46.4342 104.4000 81.8374
v  -9.4697 20.8800 -16.2210
v  -9.4697 104.4000 -16.2210
v  -2.1551 104.4000 -13.4636
v  -2.1551 20.8800 -13.4636
v  7.5135 104.4000 -9.8189
v  7.5135 20.8800 -9.8189
v  0.1988 20.8800 -12.5763
v  0.1988 104.4000 -12.5763
v  -30.0038 20.8800 89.7057
v  -30.0038 104.4000 89.7057
v  -37.3185 104.4000 86.9484
v  -37.3185 20.8800 86.9484
v  -46.9870 104.4000 83.3037
v  -46.9870 20.8800 83.3037
v  -39.6723 20.8800 86.0610
v  -39.6723 104.4000 86.0610
v  -9.4697 18.7920 -16.2210
v  -9.4697 0.0000 -16.2210
v  8.3061 18.7920 -10.1775
v  8.3061 20.8800 -10.1775
v  -30.0038 18.7920 89.7057
v  -30.0038 0.0000 89.7057
v  -47.7796 18.7920 83.6623
v  -47.7796 20.8800 83.6623
v  -2.1551 18.7920 -13.4636
v  -2.1551 0.0000 -13.4636
v  -0.1598 18.7920 -13.3689
v  -0.1598 20.8800 -13.3689
v  -37.3185 18.7920 86.9484
v  -37.3185 0.0000 86.9484
v  -39.3137 18.7920 86.8537
v  -39.3137 20.8800 86.8537
v  -50.9679 0.0000 80.1283
v  -50.9679 18.7920 80.1283
v  -14.9142 20.8800 -17.2566
v  -14.9142 18.7920 -17.2566
v  -31.0591 18.7920 24.6497
v  -31.0591 20.8800 24.6497
v  -31.2351 104.4000 27.5832
v  -31.2351 20.8800 27.5832
v  -30.2452 20.8800 24.9572
v  -30.2452 104.4000 24.9572
v  6.9607 107.0100 -8.3526
v  11.4944 107.0100 -6.6436
v  7.5135 107.0100 -9.8189
v  -9.4697 107.0100 -16.2210
v  -10.0225 107.0100 -14.7547
v  -14.5562 107.0100 -16.4637
v  -50.9679 107.0100 80.1283
v  -46.4342 107.0100 81.8374
v  -46.9870 107.0100 83.3037
v  -30.0038 107.0100 89.7057
v  -29.4510 107.0100 88.2394
v  -24.9174 107.0100 89.9485
v  -9.5258 104.4000 48.9632
v  -9.5258 107.0100 48.9632
v  46.0027 0.0000 -20.3145
v  46.0027 18.7920 -20.3145
v  48.5183 18.7920 -20.3145
v  48.5183 0.0000 -20.3145
v  48.5182 0.0000 94.3072
v  48.5182 18.7920 94.3072
v  46.0026 18.7920 94.3072
v  46.0026 0.0000 94.3072
v  61.1805 0.0000 35.5932
v  61.1805 18.7920 35.5932
v  61.1805 18.7920 38.3995
v  61.1805 0.0000 38.3995
v  46.0027 20.8800 -20.3145
v  46.0027 104.4000 -20.3145
v  48.5183 104.4000 -20.3145
v  48.5183 20.8800 -20.3145
v  48.5182 20.8800 94.3072
v  48.5182 104.4000 94.3072
v  46.0026 104.4000 94.3072
v  46.0026 20.8800 94.3072
v  58.5704 20.8800 35.5932
v  58.5704 104.4000 35.5932
v  58.5704 104.4000 38.3995
v  58.5704 20.8800 38.3995
v  33.3405 0.0000 -20.3145
v  33.3405 18.7920 -20.3145
v  38.1856 18.7920 -20.3145
v  38.1856 0.0000 -20.3145
v  61.7957 20.8800 -20.9297
v  61.7957 18.7920 -20.9297
v  56.9507 18.7920 -20.9296
v  56.9507 20.8800 -20.9296
v  61.1804 0.0000 94.3073
v  61.1804 18.7920 94.3073
v  56.3353 18.7920 94.3072
v  56.3353 0.0000 94.3072
v  32.7253 20.8800 94.9225
v  32.7253 18.7920 94.9225
v  37.5703 18.7920 94.9224
v  37.5703 20.8800 94.9224
v  33.3405 20.8800 -20.3145
v  33.3405 104.4000 -20.3145
v  38.1856 104.4000 -20.3145
v  38.1856 20.8800 -20.3145
v  61.1805 104.4000 -20.3145
v  61.1805 20.8800 -20.3145
v  56.3354 20.8800 -20.3145
v  56.3354 104.4000 -20.3145
v  61.1804 20.8800 94.3073
v  61.1804 104.4000 94.3073
v  56.3353 104.4000 94.3072
v  56.3353 20.8800 94.3072
v  33.3404 104.4000 94.3072
v  33.3404 20.8800 94.3072
v  38.1855 20.8800 94.3072
v  38.1855 104.4000 94.3072
v  38.1856 20.8800 -22.0545
v  38.1856 104.4000 -22.0545
v  46.0027 104.4000 -22.0545
v  46.0027 20.8800 -22.0545
v  56.3354 104.4000 -22.0545
v  56.3354 20.8800 -22.0545
v  48.5183 20.8800 -22.0545
v  48.5183 104.4000 -22.0545
v  56.3353 20.8800 96.0472
v  56.3353 104.4000 96.0472
v  48.5182 104.4000 96.0472
v  48.5182 20.8800 96.0472
v  38.1855 104.4000 96.0472
v  38.1855 20.8800 96.0472
v  46.0026 20.8800 96.0472
v  46.0026 104.4000 96.0472
v  38.1856 18.7920 -22.0545
v  38.1856 0.0000 -22.0545
v  56.9507 18.7920 -22.6696
v  56.9507 20.8800 -22.6696
v  56.3353 18.7920 96.0472
v  56.3353 0.0000 96.0472
v  37.5702 18.7920 96.6624
v  37.5702 20.8800 96.6624
v  46.0027 18.7920 -22.0545
v  46.0027 0.0000 -22.0545
v  47.9030 18.7920 -22.6696
v  47.9030 20.8800 -22.6696
v  48.5182 18.7920 96.0472
v  48.5182 0.0000 96.0472
v  46.6179 18.7920 96.6624
v  46.6178 18.7920 94.9224
v  46.6178 20.8800 94.9224
v  46.6179 20.8800 96.6624
v  61.1805 0.0000 -20.3145
v  61.1805 18.7920 -20.3145
v  61.7956 20.8800 94.9224
v  61.7956 18.7920 94.9224
v  62.0505 18.7920 38.3995
v  62.0505 20.8800 38.3995
v  61.1805 104.4000 35.5932
v  61.1805 20.8800 35.5932
v  61.1805 20.8800 38.3995
v  61.1805 104.4000 38.3995
v  56.3354 107.0100 -20.3145
v  61.1805 107.0100 -20.3145
v  56.3354 107.0100 -22.0545
v  38.1856 107.0100 -22.0545
v  38.1856 107.0100 -20.3145
v  33.3405 107.0100 -20.3145
v  33.3405 104.4000 22.7344
v  33.3405 107.0100 22.7344
v  38.1855 107.0100 94.3072
v  33.3404 107.0100 94.3072
v  38.1855 107.0100 96.0472
v  56.3353 107.0100 96.0472
v  56.3353 107.0100 94.3072
v  61.1804 107.0100 94.3073
v  11.4944 0.0000 -6.6436
v  11.4944 18.7920 -6.6436
v  0.3551 18.7920 22.7653
v  0.3552 0.0000 22.7653
v  0.3551 104.4000 22.7653
v  0.3551 20.8800 22.7653
v  0.3551 107.0100 22.7653
v  -24.5582 20.8800 90.7409
v  -24.5582 18.7920 90.7409
v  -9.1681 18.7920 49.7563
v  -9.1681 20.8800 49.7563
v  -9.5258 20.8800 48.9632
v  33.3404 0.0000 94.3072
v  33.3404 18.7920 94.3072
v  33.3404 18.7920 51.2583
v  33.3404 0.0000 51.2583
v  33.3404 104.4000 51.2583
v  33.3404 20.8800 51.2583
v  33.3404 107.0100 51.2583
v  32.7253 20.8800 -20.9296
v  32.7253 18.7920 -20.9296
v  32.7250 18.7920 22.1195
v  32.7250 20.8800 22.1195
v  33.3405 20.8800 22.7344
v  -3.7391 18.7920 52.0839
v  -3.7391 20.8800 52.0839
v  -3.5812 20.8800 51.2283
v  -3.5812 104.4000 51.2283
v  -3.5812 107.0100 51.2283
v  1.0708 18.7920 22.2706
v  1.0708 20.8800 22.2706
v  32.7250 18.7920 51.8732
v  32.7250 20.8800 51.8732
v  -39.6723 18.7920 86.0610
v  -39.6723 0.0000 86.0610
v  0.1988 18.7920 -12.5763
v  0.1988 0.0000 -12.5763
v  48.5183 18.7920 -22.0545
v  48.5183 0.0000 -22.0545
v  47.9030 20.8800 94.9224
v  47.9030 18.7920 94.9224
v  47.9030 18.7920 96.6624
v  47.9030 20.8800 96.6624
v  -1.9152 20.8800 -12.3559
v  -0.7126 20.8800 -11.9026
v  -0.7126 18.7920 -11.9026
v  -1.9152 18.7920 -12.3559
v  -32.0494 20.8800 27.2768
v  -32.0494 18.7920 27.2768
v  -37.5583 20.8800 85.8407
v  -38.7609 20.8800 85.3874
v  -38.7609 18.7920 85.3874
v  -37.5583 18.7920 85.8407
v  -10.3811 20.8800 -15.5473
v  -10.3811 18.7920 -15.5473
v  6.9607 0.0000 -8.3526
v  6.9607 18.7920 -8.3526
v  -29.0924 20.8800 89.0321
v  -29.0924 18.7920 89.0321
v  -46.4342 0.0000 81.8374
v  -46.4342 18.7920 81.8374
v  -9.8284 20.8800 -17.0136
v  -9.8284 18.7920 -17.0136
v  7.5135 0.0000 -9.8189
v  7.5135 18.7920 -9.8189
v  -29.6451 20.8800 90.4984
v  -29.6451 18.7920 90.4984
v  -46.9870 0.0000 83.3037
v  -46.9870 18.7920 83.3037
v  -1.3624 20.8800 -13.8222
v  -1.3624 18.7920 -13.8222
v  -38.1111 20.8800 87.3070
v  -38.1111 18.7920 87.3070
v  46.6180 20.8800 -20.9296
v  47.9030 20.8800 -20.9296
v  47.9030 18.7920 -20.9296
v  46.6180 18.7920 -20.9296
v  62.0505 20.8800 35.5932
v  62.0505 18.7920 35.5932
v  37.5703 20.8800 -20.9296
v  37.5703 18.7920 -20.9296
v  56.3354 0.0000 -20.3145
v  56.3354 18.7920 -20.3145
v  56.9505 20.8800 94.9224
v  56.9505 18.7920 94.9224
v  38.1855 0.0000 94.3072
v  38.1855 18.7920 94.3072
v  37.5703 20.8800 -22.6696
v  37.5703 18.7920 -22.6696
v  56.3354 0.0000 -22.0545
v  56.3354 18.7920 -22.0545
v  56.9505 20.8800 96.6624
v  56.9505 18.7920 96.6624
v  38.1855 0.0000 96.0472
v  38.1855 18.7920 96.0472
v  46.6180 20.8800 -22.6696
v  46.6180 18.7920 -22.6696
v  46.0026 0.0000 96.0472
v  46.0026 18.7920 96.0472
v  -9.5258 0.0000 48.9632
v  -9.5258 18.7920 48.9632
v  33.3405 0.0000 22.7344
v  33.3405 18.7920 22.7344
v  -3.5812 0.0000 51.2283
v  -3.5812 18.7920 51.2283
v  6.4002 106.1400 -8.0990
v  6.9530 106.1400 -9.5653
v  -9.2162 106.1400 -15.6605
v  -9.7689 106.1400 -14.1942
v  -14.3026 106.1400 -15.9032
v  -50.4074 106.1400 79.8747
v  -45.8738 106.1400 81.5838
v  -46.4265 106.1400 83.0501
v  -30.2574 106.1400 89.1453
v  -29.7046 106.1400 87.6790
v  -25.1715 106.1400 89.3878
v  -9.7793 106.1400 48.4011
v  -3.5010 106.1400 50.7934
v  33.7754 106.1400 50.8236
v  33.7754 106.1400 93.8722
v  38.6205 106.1400 93.8722
v  38.6205 106.1400 95.6122
v  55.9003 106.1400 95.6122
v  55.9003 106.1400 93.8722
v  60.7454 106.1400 93.8723
v  60.7455 106.1400 -19.8795
v  55.9004 106.1400 -19.8795
v  55.9004 106.1400 -21.6195
v  38.6206 106.1400 -21.6195
v  38.6206 106.1400 -19.8795
v  33.7755 106.1400 -19.8795
v  33.7755 106.1400 23.1690
v  -0.2750 106.1400 23.2009
v  10.9333 106.1400 -6.3902
v  6.4002 107.0100 -8.0990
v  10.9333 107.0100 -6.3902
v  6.9530 107.0100 -9.5653
v  -9.2162 107.0100 -15.6605
v  -9.7689 107.0100 -14.1942
v  -14.3026 107.0100 -15.9032
v  -50.4074 107.0100 79.8747
v  -45.8738 107.0100 81.5838
v  -46.4265 107.0100 83.0501
v  -30.2574 107.0100 89.1453
v  -29.7046 107.0100 87.6790
v  -25.1715 107.0100 89.3878
v  -9.7793 107.0100 48.4011
v  -3.5010 107.0100 50.7934
v  33.7754 107.0100 50.8236
v  33.7754 107.0100 93.8722
v  38.6205 107.0100 93.8722
v  38.6205 107.0100 95.6122
v  55.9003 107.0100 95.6122
v  55.9003 107.0100 93.8722
v  60.7454 107.0100 93.8723
v  60.7455 107.0100 -19.8795
v  55.9004 107.0100 -19.8795
v  55.9004 107.0100 -21.6195
v  38.6206 107.0100 -21.6195
v  38.6206 107.0100 -19.8795
v  33.7755 107.0100 -19.8795
v  33.7755 107.0100 23.1690
v  -0.2750 107.0100 23.2009
v  33.9736 112.5886 46.8104
v  46.2362 112.5886 46.8104
v  46.2363 112.5886 26.0881
v  33.9736 112.5886 26.0881
v  33.9736 105.6286 46.8104
v  46.2362 105.6286 46.8104
v  46.2363 105.6286 26.0881
v  33.9736 105.6286 26.0881
v  -19.9015 112.5886 41.2039
v  -8.4082 112.5886 45.4792
v  -1.1835 112.5886 26.0572
v  -12.6767 112.5886 21.7819
v  -19.9015 105.6286 41.2039
v  -8.4082 105.6286 45.4792
v  -1.1835 105.6286 26.0572
v  -12.6767 105.6286 21.7819
v  -35.7522 1.0000 29.3374
v  -31.8536 1.0000 30.7247
v  -28.3372 1.0000 21.3634
v  -32.2358 1.0000 19.9760
v  -37.8098 0.0000 30.1496
v  -31.6724 0.0000 32.4550
v  -27.0616 0.0000 20.1802
v  -33.1990 0.0000 17.8748
v  68.8241 7.0000 29.8613
v  60.6196 7.0000 29.8510
v  60.5989 7.0000 46.2601
v  68.8034 7.0000 46.2704
v  64.3200 0.9124 32.3081
v  61.0206 0.9124 32.2989
v  61.0079 0.9124 43.5377
v  64.3074 0.9124 43.5469
v  65.5347 0.1315 30.5606
v  60.4150 0.1315 30.5487
v  60.3984 0.1315 45.2852
v  65.5180 0.1315 45.2971
v  -29.1272 7.0000 23.6009
v  -34.4369 7.0000 21.6065
v  -35.5247 7.0000 21.8866
v  -36.5938 7.0000 22.5659
v  -37.1500 7.0000 23.3042
v  -30.0241 7.0000 25.9810
v  -31.7082 7.0000 19.0333
v  -32.4171 7.0000 18.7670
v  -33.4979 7.0000 19.1248
v  -34.2106 7.0000 20.0380
v  -34.5335 7.0000 21.0068
v  -27.9395 7.0000 20.4489
v  -37.3321 7.0000 24.2385
v  -37.1825 7.0000 25.0653
v  -36.7809 7.0000 25.9788
v  -36.3217 7.0000 26.5076
v  -30.9788 7.0000 28.5146
v  -36.7967 7.0000 27.0340
v  -37.2691 7.0000 28.2860
v  -37.1353 7.0000 29.3254
v  -36.5874 7.0000 30.0485
v  -35.9128 7.0000 30.3019
v  -32.1805 7.0000 31.7038
v  -31.3708 7.0000 18.1559
v  -27.4878 7.0000 19.2501
v  -27.7738 7.0000 18.5346
v  -28.1524 7.0000 18.3118
v  -28.4865 7.0000 18.4009
v  -28.6313 7.0000 18.0891
v  -29.1770 7.0000 17.8330
v  -29.7338 7.0000 18.2673
v  -30.6804 7.0000 17.7996
v  -30.0567 7.0000 17.9666
v  -34.5603 7.0000 33.0029
v  -34.2217 7.0000 33.0029
v  -33.8988 7.0000 32.8060
v  -33.7177 7.0000 33.1210
v  -33.4264 7.0000 33.2942
v  -32.8515 7.0000 32.9556
v  -32.5196 7.0000 32.6037
v  -36.2691 7.0000 31.2705
v  -35.9305 7.0000 31.9870
v  -35.3399 7.0000 32.1682
v  -35.0170 7.0000 32.0500
v  -34.8832 7.0000 32.6564
# 470 vertices

vn 0.3527 0.0000 -0.9357
vn -0.9359 0.0000 -0.3522
vn -0.9359 0.0000 -0.3521
vn -0.9354 0.0000 -0.3535
vn -0.9354 -0.0000 -0.3535
vn -0.3527 0.0000 0.9357
vn -0.9357 0.0000 -0.3527
vn 0.3528 0.0000 -0.9357
vn -0.3527 0.0000 0.9358
vn 0.3527 -0.0000 -0.9357
vn 0.9357 0.0000 0.3527
vn -0.9362 0.0000 -0.3516
vn -0.9331 -0.0000 -0.3595
vn -0.9331 0.0000 -0.3595
vn -0.9344 -0.0000 -0.3561
vn -0.9357 0.0176 -0.3523
vn -0.9352 0.0000 -0.3542
vn -0.9354 0.0176 -0.3532
vn 0.0000 1.0000 -0.0000
vn -0.9361 0.0008 -0.3516
vn -0.9352 0.0010 -0.3542
vn 0.9362 0.0000 0.3516
vn 0.0000 0.0000 -1.0000
vn -0.0000 0.0000 1.0000
vn 1.0000 -0.0000 0.0000
vn 1.0000 0.0000 0.0000
vn -0.0000 0.0000 -1.0000
vn 0.0000 0.0000 1.0000
vn 0.0000 -0.0000 -1.0000
vn -0.0000 -0.0000 1.0000
vn -1.0000 0.0000 -0.0000
vn 1.0000 0.0000 -0.0000
vn 1.0000 0.0000 0.0045
vn 1.0000 0.0000 0.0023
vn -0.0000 -0.0000 -1.0000
vn 0.9352 0.0000 0.3542
vn 0.9362 0.0000 0.3515
vn -0.3940 0.0000 0.9191
vn -0.1983 0.0000 0.9801
vn -0.3561 0.0000 0.9345
vn -0.1814 0.0000 0.9834
vn -0.0009 0.0000 -1.0000
vn -0.0048 0.0000 -1.0000
vn 0.0058 0.0000 1.0000
vn -0.0008 0.0000 1.0000
vn -0.9367 -0.0000 -0.3501
vn -0.9367 0.0000 -0.3501
vn -0.9377 0.0000 -0.3474
vn -0.9352 -0.0000 -0.3542
vn 1.0000 0.0000 -0.0023
vn 1.0000 0.0000 -0.0045
vn 0.9338 0.0000 0.3578
vn -1.0000 0.0000 0.0000
vn -1.0000 -0.0000 -0.0000
vn -0.3561 -0.0000 0.9345
vn -0.1814 -0.0000 0.9834
vn -0.0009 -0.0000 -1.0000
vn 0.0000 -1.0000 -0.0000
vn 0.3561 0.0000 -0.9345
vn 0.0008 0.0000 -1.0000
vn 0.0009 0.0000 1.0000
vn -0.3486 0.0000 0.9373
vn 0.9373 0.0000 0.3486
vn 0.3486 0.0000 -0.9373
vn -0.9373 0.0000 -0.3486
vn -0.1900 0.8306 0.5234
vn -0.1901 0.8413 0.5061
vn -0.1901 0.8387 0.5103
vn -0.1899 0.8241 0.5336
vn 0.7388 0.6141 0.2775
vn 0.1829 0.8433 -0.5054
vn 0.1840 0.8521 -0.4899
vn 0.1838 0.8501 -0.4935
vn 0.1824 0.8391 -0.5126
vn -0.4872 0.8539 -0.1830
vn 0.0011 0.9132 -0.4075
vn 0.0010 0.9131 -0.4077
vn 0.0010 0.9131 -0.4076
vn 0.0011 0.9133 -0.4073
vn -0.7892 0.6141 -0.0009
vn -0.7893 0.6141 -0.0009
vn -0.0011 0.9131 0.4078
vn -0.0010 0.9130 0.4080
vn -0.0010 0.9130 0.4079
vn -0.0011 0.9131 0.4077
vn 0.5414 0.8408 0.0006
# 86 vertex normals

vt 0.3503 0.4600 0.0000
vt 0.3503 0.5566 0.0000
vt 0.3374 0.5566 0.0000
vt 0.3374 0.4600 0.0000
vt 0.7243 0.4632 0.0000
vt 0.7243 0.5599 0.0000
vt 0.7113 0.5599 0.0000
vt 0.7113 0.4632 0.0000
vt 0.3503 0.9861 0.0000
vt 0.3374 0.9861 0.0000
vt 0.7228 0.5599 0.0000
vt 0.7228 0.9901 0.0000
vt 0.7128 0.9901 0.0000
vt 0.7128 0.5599 0.0000
vt 0.4321 0.4600 0.0000
vt 0.4321 0.5566 0.0000
vt 0.4073 0.5566 0.0000
vt 0.4073 0.4600 0.0000
vt 0.3085 0.0389 0.0000
vt 0.3085 0.0095 0.0000
vt 0.3762 0.0095 0.0000
vt 0.3762 0.0389 0.0000
vt 0.3046 0.0389 0.0000
vt 0.3046 0.0095 0.0000
vt 0.3715 0.0095 0.0000
vt 0.3715 0.0389 0.0000
vt 0.4321 0.9861 0.0000
vt 0.4073 0.9861 0.0000
vt 0.2555 0.9861 0.0000
vt 0.2555 0.5566 0.0000
vt 0.2804 0.5566 0.0000
vt 0.2804 0.9861 0.0000
vt 0.3988 0.5566 0.0000
vt 0.3988 0.9861 0.0000
vt 0.3587 0.9861 0.0000
vt 0.3587 0.5566 0.0000
vt 0.2888 0.9861 0.0000
vt 0.2888 0.5566 0.0000
vt 0.3289 0.5566 0.0000
vt 0.3289 0.9861 0.0000
vt 0.3988 0.4600 0.0000
vt 0.3981 0.0095 0.0000
vt 0.3981 0.0389 0.0000
vt 0.3931 0.0095 0.0000
vt 0.3931 0.0389 0.0000
vt 0.3587 0.4600 0.0000
vt 0.5244 0.0095 0.0000
vt 0.5244 0.0389 0.0000
vt 0.5181 0.0095 0.0000
vt 0.5181 0.0389 0.0000
vt 0.9841 0.4632 0.0000
vt 0.9841 0.5599 0.0000
vt 0.2272 0.0389 0.0000
vt 0.2272 0.0095 0.0000
vt 0.8596 0.0095 0.0000
vt 0.8596 0.0389 0.0000
vt 0.9901 0.5599 0.0000
vt 0.9901 0.9901 0.0000
vt 0.7304 0.9901 0.0000
vt 0.7304 0.5599 0.0000
vt 0.4455 0.9901 0.0000
vt 0.4455 0.5599 0.0000
vt 0.7052 0.5599 0.0000
vt 0.7052 0.9901 0.0000
vt 0.5160 0.0095 0.0000
vt 0.5589 0.0095 0.0000
vt 0.5589 0.0389 0.0000
vt 0.5160 0.0389 0.0000
vt 0.5728 0.0095 0.0000
vt 0.5728 0.0389 0.0000
vt 0.6644 0.0095 0.0000
vt 0.7337 0.0095 0.0000
vt 0.7337 0.0389 0.0000
vt 0.6421 0.0095 0.0000
vt 0.7476 0.0095 0.0000
vt 0.7476 0.0389 0.0000
vt 0.7906 0.0095 0.0000
vt 0.7906 0.0389 0.0000
vt 0.5920 0.0390 0.0000
vt 0.1115 0.0390 0.0000
vt 0.1115 0.0095 0.0000
vt 0.9952 0.0095 0.0000
vt 0.6161 0.0390 0.0000
vt 0.9953 0.0390 0.0000
vt 0.3596 0.0095 0.0000
vt 0.4019 0.0095 0.0000
vt 0.4019 0.0389 0.0000
vt 0.3596 0.0389 0.0000
vt 0.4156 0.0095 0.0000
vt 0.4156 0.0389 0.0000
vt 0.5058 0.0095 0.0000
vt 0.5740 0.0095 0.0000
vt 0.5740 0.0389 0.0000
vt 0.4838 0.0095 0.0000
vt 0.5877 0.0095 0.0000
vt 0.5877 0.0389 0.0000
vt 0.6300 0.0095 0.0000
vt 0.6300 0.0389 0.0000
vt 0.4917 0.0095 0.0000
vt 0.4917 0.0389 0.0000
vt 0.0985 0.0389 0.0000
vt 0.0985 0.0095 0.0000
vt 0.3734 0.0389 0.0000
vt 0.3734 0.0094 0.0000
vt 0.4431 0.0094 0.0000
vt 0.4431 0.0389 0.0000
vt 0.2956 0.0389 0.0000
vt 0.2956 0.0095 0.0000
vt 0.3644 0.0095 0.0000
vt 0.3644 0.0389 0.0000
vt 0.4681 0.0094 0.0000
vt 0.4681 0.0389 0.0000
vt 0.3892 0.0095 0.0000
vt 0.3892 0.0389 0.0000
vt 0.5982 0.0094 0.0000
vt 0.5982 0.0389 0.0000
vt 0.5178 0.0095 0.0000
vt 0.5426 0.0095 0.0000
vt 0.5426 0.0389 0.0000
vt 0.5178 0.0389 0.0000
vt 0.1264 0.0389 0.0000
vt 0.1264 0.0095 0.0000
vt 0.8948 0.0095 0.0000
vt 0.8948 0.0389 0.0000
vt 0.3387 0.0095 0.0000
vt 0.3825 0.0095 0.0000
vt 0.3825 0.0389 0.0000
vt 0.3387 0.0389 0.0000
vt 0.3982 0.0095 0.0000
vt 0.3982 0.0389 0.0000
vt 0.4915 0.0095 0.0000
vt 0.5621 0.0095 0.0000
vt 0.5621 0.0389 0.0000
vt 0.4688 0.0095 0.0000
vt 0.5778 0.0095 0.0000
vt 0.5778 0.0389 0.0000
vt 0.6216 0.0095 0.0000
vt 0.6216 0.0389 0.0000
vt 0.5984 0.0095 0.0000
vt 0.5984 0.0389 0.0000
vt 0.2159 0.0389 0.0000
vt 0.2159 0.0095 0.0000
vt 0.6091 0.0095 0.0000
vt 0.6524 0.0095 0.0000
vt 0.6524 0.0389 0.0000
vt 0.6091 0.0389 0.0000
vt 0.6680 0.0095 0.0000
vt 0.6680 0.0389 0.0000
vt 0.7606 0.0095 0.0000
vt 0.8306 0.0095 0.0000
vt 0.8306 0.0389 0.0000
vt 0.7380 0.0095 0.0000
vt 0.8461 0.0095 0.0000
vt 0.8461 0.0389 0.0000
vt 0.8895 0.0095 0.0000
vt 0.8895 0.0389 0.0000
vt 0.5361 0.0389 0.0000
vt 0.0989 0.0389 0.0000
vt 0.0989 0.0095 0.0000
vt 0.5580 0.0389 0.0000
vt 0.9952 0.0389 0.0000
vt 0.9838 0.4634 0.0000
vt 0.9838 0.5601 0.0000
vt 0.8220 0.5601 0.0000
vt 0.8220 0.4634 0.0000
vt 0.9840 0.5601 0.0000
vt 0.9840 0.9898 0.0000
vt 0.8221 0.9898 0.0000
vt 0.8221 0.5601 0.0000
vt 0.2372 0.0389 0.0000
vt 0.2372 0.0095 0.0000
vt 0.3025 0.0389 0.0000
vt 0.3025 0.0095 0.0000
vt 0.9209 0.0095 0.0000
vt 0.9209 0.0389 0.0000
vt 0.4523 0.9898 0.0000
vt 0.4523 0.5601 0.0000
vt 0.6776 0.5601 0.0000
vt 0.6776 0.9898 0.0000
vt 0.4526 0.4632 0.0000
vt 0.4526 0.5600 0.0000
vt 0.6522 0.5600 0.0000
vt 0.6522 0.4632 0.0000
vt 0.4526 0.9900 0.0000
vt 0.6522 0.9900 0.0000
vt 0.2235 0.0389 0.0000
vt 0.2235 0.0095 0.0000
vt 0.2488 0.0389 0.0000
vt 0.2488 0.0095 0.0000
vt 0.8539 0.0095 0.0000
vt 0.8539 0.0389 0.0000
vt 0.9840 0.9900 0.0000
vt 0.9840 0.5600 0.0000
vt 0.7844 0.5600 0.0000
vt 0.7844 0.9900 0.0000
vt 0.4698 0.0095 0.0000
vt 0.5532 0.0095 0.0000
vt 0.5532 0.0389 0.0000
vt 0.4698 0.0389 0.0000
vt 0.0142 0.9866 0.0000
vt 0.0142 0.5569 0.0000
vt 0.0470 0.5569 0.0000
vt 0.0470 0.9867 0.0000
vt 0.5488 0.0095 0.0000
vt 0.5488 0.0389 0.0000
vt 0.2362 0.5569 0.0000
vt 0.2363 0.9867 0.0000
vt 0.0984 0.0095 0.0000
vt 0.5490 0.0095 0.0000
vt 0.5490 0.0389 0.0000
vt 0.0984 0.0389 0.0000
vt 0.8914 0.0095 0.0000
vt 0.8914 0.0389 0.0000
vt 0.2033 0.0095 0.0000
vt 0.7184 0.0095 0.0000
vt 0.7184 0.0389 0.0000
vt 0.2033 0.0389 0.0000
vt 0.2788 0.0095 0.0000
vt 0.6104 0.0095 0.0000
vt 0.6104 0.0389 0.0000
vt 0.2788 0.0389 0.0000
vt 0.3289 0.4600 0.0000
vt 0.5608 0.0389 0.0000
vt 0.5608 0.0095 0.0000
vt 0.5856 0.0095 0.0000
vt 0.5856 0.0389 0.0000
vt 0.5642 0.0389 0.0000
vt 0.5463 0.0389 0.0000
vt 0.5463 0.0095 0.0000
vt 0.5642 0.0095 0.0000
vt 0.8992 0.0389 0.0000
vt 0.8992 0.0095 0.0000
vt 0.5575 0.0389 0.0000
vt 0.5397 0.0389 0.0000
vt 0.5397 0.0095 0.0000
vt 0.5575 0.0095 0.0000
vt 0.8020 0.0389 0.0000
vt 0.7343 0.0389 0.0000
vt 0.7343 0.0095 0.0000
vt 0.8020 0.0095 0.0000
vt 0.2555 0.4600 0.0000
vt 0.2804 0.4600 0.0000
vt 0.7927 0.0389 0.0000
vt 0.7257 0.0389 0.0000
vt 0.7257 0.0095 0.0000
vt 0.7927 0.0095 0.0000
vt 0.7124 0.0389 0.0000
vt 0.7124 0.0095 0.0000
vt 0.2888 0.4600 0.0000
vt 0.7041 0.0389 0.0000
vt 0.7041 0.0095 0.0000
vt 0.5861 0.0389 0.0000
vt 0.5861 0.0095 0.0000
vt 0.5791 0.0389 0.0000
vt 0.5791 0.0095 0.0000
vt 0.9633 0.0389 0.0000
vt 0.1642 0.0389 0.0000
vt 0.1642 0.0095 0.0000
vt 0.9633 0.0095 0.0000
vt 0.4516 0.4632 0.0000
vt 0.4516 0.5599 0.0000
vt 0.3814 0.0389 0.0000
vt 0.3629 0.0389 0.0000
vt 0.3629 0.0094 0.0000
vt 0.3814 0.0094 0.0000
vt 0.9329 0.0389 0.0000
vt 0.9329 0.0095 0.0000
vt 0.6312 0.0389 0.0000
vt 0.5615 0.0389 0.0000
vt 0.5615 0.0094 0.0000
vt 0.6312 0.0094 0.0000
vt 0.8079 0.0389 0.0000
vt 0.7390 0.0389 0.0000
vt 0.7390 0.0095 0.0000
vt 0.8079 0.0095 0.0000
vt 0.5365 0.0389 0.0000
vt 0.5365 0.0094 0.0000
vt 0.7142 0.0389 0.0000
vt 0.7142 0.0095 0.0000
vt 0.4064 0.0389 0.0000
vt 0.4064 0.0094 0.0000
vt 0.9218 0.0389 0.0000
vt 0.1534 0.0389 0.0000
vt 0.1534 0.0095 0.0000
vt 0.9218 0.0095 0.0000
vt 0.9953 0.0389 0.0000
vt 0.9953 0.0095 0.0000
vt 0.4526 0.4634 0.0000
vt 0.6779 0.4634 0.0000
vt 0.6779 0.5601 0.0000
vt 0.4526 0.5601 0.0000
vt 0.8754 0.0389 0.0000
vt 0.2673 0.0389 0.0000
vt 0.2673 0.0095 0.0000
vt 0.8754 0.0095 0.0000
vt 0.9840 0.4632 0.0000
vt 0.7844 0.4632 0.0000
vt 0.0142 0.4601 0.0000
vt 0.0470 0.4601 0.0000
vt 0.2361 0.4601 0.0000
vt 0.6233 0.0389 0.0000
vt 0.6233 0.0094 0.0000
vt 0.4864 0.2144 0.0000
vt 0.4890 0.2144 0.0000
vt 0.4893 0.2147 0.0000
vt 0.4868 0.2147 0.0000
vt 0.4890 0.1980 0.0000
vt 0.4893 0.1984 0.0000
vt 0.5060 0.2014 0.0000
vt 0.5057 0.2018 0.0000
vt 0.5132 0.2227 0.0000
vt 0.5130 0.2231 0.0000
vt 0.5156 0.2219 0.0000
vt 0.5155 0.2223 0.0000
vt 0.5160 0.2227 0.0000
vt 0.5159 0.2231 0.0000
vt 0.5197 0.2209 0.0000
vt 0.5202 0.2210 0.0000
vt 0.5192 0.2202 0.0000
vt 0.5196 0.2202 0.0000
vt 0.5199 0.2192 0.0000
vt 0.5201 0.2196 0.0000
vt 0.5208 0.2195 0.0000
vt 0.5210 0.2199 0.0000
vt 0.5220 0.2156 0.0000
vt 0.5224 0.2154 0.0000
vt 0.5212 0.2150 0.0000
vt 0.5216 0.2150 0.0000
vt 0.5234 0.2136 0.0000
vt 0.5237 0.2138 0.0000
vt 0.5254 0.1844 0.0000
vt 0.5258 0.1844 0.0000
vt 0.5254 0.1829 0.0000
vt 0.5259 0.1829 0.0000
vt 0.5248 0.1536 0.0000
vt 0.5252 0.1534 0.0000
vt 0.5228 0.1520 0.0000
vt 0.5232 0.1519 0.0000
vt 0.5232 0.1512 0.0000
vt 0.5237 0.1510 0.0000
vt 0.5193 0.1498 0.0000
vt 0.5192 0.1493 0.0000
vt 0.5188 0.1505 0.0000
vt 0.5187 0.1500 0.0000
vt 0.5177 0.1498 0.0000
vt 0.5181 0.1496 0.0000
vt 0.5180 0.1489 0.0000
vt 0.5184 0.1487 0.0000
vt 0.5141 0.1475 0.0000
vt 0.5140 0.1471 0.0000
vt 0.5137 0.1483 0.0000
vt 0.5135 0.1479 0.0000
vt 0.5113 0.1474 0.0000
vt 0.5111 0.1470 0.0000
vt 0.5033 0.1684 0.0000
vt 0.5031 0.1680 0.0000
vt 0.4838 0.1674 0.0000
vt 0.4838 0.1670 0.0000
vt 0.4807 0.1686 0.0000
vt 0.4808 0.1682 0.0000
vt 0.4647 0.1521 0.0000
vt 0.4647 0.1517 0.0000
vt 0.4627 0.1538 0.0000
vt 0.4628 0.1534 0.0000
vt 0.4623 0.1531 0.0000
vt 0.4624 0.1527 0.0000
vt 0.4584 0.1548 0.0000
vt 0.4584 0.1549 0.0000
vt 0.4585 0.1539 0.0000
vt 0.4585 0.1542 0.0000
vt 0.4586 0.1552 0.0000
vt 0.4583 0.1549 0.0000
vt 0.4578 0.1554 0.0000
vt 0.4575 0.1551 0.0000
vt 0.4578 0.1595 0.0000
vt 0.4575 0.1598 0.0000
vt 0.4586 0.1598 0.0000
vt 0.4582 0.1599 0.0000
vt 0.4571 0.1619 0.0000
vt 0.4567 0.1619 0.0000
vt 0.4656 0.1901 0.0000
vt 0.4652 0.1902 0.0000
vt 0.4661 0.1915 0.0000
vt 0.4656 0.1916 0.0000
vt 0.4746 0.2131 0.0000
vt 0.4743 0.2134 0.0000
vt 0.4771 0.2140 0.0000
vt 0.4767 0.2142 0.0000
vt 0.4769 0.2147 0.0000
vt 0.4766 0.2150 0.0000
vt 0.4811 0.2147 0.0000
vt 0.4814 0.2151 0.0000
vt 0.4814 0.2139 0.0000
vt 0.4816 0.2143 0.0000
vt 0.4826 0.2145 0.0000
vt 0.4822 0.2147 0.0000
vt 0.4823 0.2153 0.0000
vt 0.4820 0.2155 0.0000
vt 0.4864 0.2152 0.0000
vt 0.4868 0.2156 0.0000
vt 0.4828 0.2151 0.0000
vt 0.4826 0.2137 0.0000
vt 0.4829 0.2140 0.0000
vt 0.4829 0.2147 0.0000
vt 0.4834 0.2136 0.0000
vt 0.4838 0.2136 0.0000
vt 0.4791 0.2135 0.0000
vt 0.4792 0.2133 0.0000
vt 0.4783 0.2129 0.0000
vt 0.4788 0.2129 0.0000
vt 0.4802 0.2110 0.0000
vt 0.4806 0.2111 0.0000
vt 0.4680 0.1912 0.0000
vt 0.4684 0.1910 0.0000
vt 0.4674 0.1898 0.0000
vt 0.4679 0.1897 0.0000
vt 0.4607 0.1611 0.0000
vt 0.4610 0.1608 0.0000
vt 0.4583 0.1601 0.0000
vt 0.4586 0.1602 0.0000
vt 0.4591 0.1600 0.0000
vt 0.4594 0.1603 0.0000
vt 0.4588 0.1559 0.0000
vt 0.4591 0.1555 0.0000
vt 0.4581 0.1561 0.0000
vt 0.4582 0.1556 0.0000
vt 0.4571 0.1552 0.0000
vt 0.4575 0.1552 0.0000
vt 0.4577 0.1545 0.0000
vt 0.4577 0.1546 0.0000
vt 0.4617 0.1560 0.0000
vt 0.4620 0.1562 0.0000
vt 0.4613 0.1554 0.0000
vt 0.4616 0.1553 0.0000
vt 0.4616 0.1529 0.0000
vt 0.4616 0.1528 0.0000
vt 0.4793 0.1675 0.0000
vt 0.4792 0.1677 0.0000
vt 0.4822 0.1686 0.0000
vt 0.4822 0.1690 0.0000
vt 0.5003 0.1619 0.0000
vt 0.5004 0.1621 0.0000
vt 0.5181 0.1483 0.0000
vt 0.5185 0.1482 0.0000
vt 0.5156 0.1478 0.0000
vt 0.5160 0.1476 0.0000
vt 0.5161 0.1469 0.0000
vt 0.5201 0.1486 0.0000
vt 0.5201 0.1490 0.0000
vt 0.5211 0.1484 0.0000
vt 0.5208 0.1487 0.0000
vt 0.5205 0.1496 0.0000
vt 0.5203 0.1492 0.0000
vt 0.5197 0.1496 0.0000
vt 0.5193 0.1493 0.0000
vt 0.5208 0.1535 0.0000
vt 0.5205 0.1539 0.0000
vt 0.5218 0.1536 0.0000
vt 0.5214 0.1538 0.0000
vt 0.5203 0.1558 0.0000
vt 0.5199 0.1557 0.0000
vt 0.5241 0.1849 0.0000
vt 0.5237 0.1849 0.0000
vt 0.5241 0.1864 0.0000
vt 0.5237 0.1864 0.0000
vt 0.5194 0.2153 0.0000
vt 0.5191 0.2155 0.0000
vt 0.5220 0.2160 0.0000
vt 0.5215 0.2161 0.0000
vt 0.5212 0.2168 0.0000
vt 0.5210 0.2166 0.0000
vt 0.5176 0.2192 0.0000
vt 0.5172 0.2191 0.0000
vt 0.5182 0.2200 0.0000
vt 0.5178 0.2198 0.0000
vt 0.5169 0.2203 0.0000
vt 0.5171 0.2199 0.0000
vt 0.5164 0.2195 0.0000
vt 0.5166 0.2191 0.0000
vt 0.5122 0.2203 0.0000
vt 0.5118 0.2200 0.0000
vt 0.5121 0.2210 0.0000
vt 0.5142 0.2200 0.0000
vt 0.5146 0.2202 0.0000
vt 0.5063 0.1991 0.0000
vt 0.5064 0.1990 0.0000
vt 0.4892 0.1980 0.0000
vt 0.4893 0.1981 0.0000
vt 0.4892 0.2145 0.0000
vt 0.4874 0.2166 0.0000
vt 0.4876 0.2163 0.0000
vt 0.4875 0.2158 0.0000
vt 0.4879 0.2156 0.0000
vt 0.4835 0.2145 0.0000
vt 0.4834 0.2141 0.0000
vt 0.3814 0.2424 0.0000
vt 0.3866 0.2405 0.0000
vt 0.4082 0.2977 0.0000
vt 0.4030 0.2997 0.0000
vt 0.4090 0.3157 0.0000
vt 0.0698 0.4436 0.0000
vt 0.0638 0.4276 0.0000
vt 0.0586 0.4295 0.0000
vt 0.0370 0.3722 0.0000
vt 0.0422 0.3703 0.0000
vt 0.0361 0.3542 0.0000
vt 0.1813 0.2997 0.0000
vt 0.1728 0.2775 0.0000
vt 0.1727 0.1455 0.0000
vt 0.0202 0.1455 0.0000
vt 0.0202 0.1283 0.0000
vt 0.0141 0.1283 0.0000
vt 0.0141 0.0671 0.0000
vt 0.0202 0.0671 0.0000
vt 0.0202 0.0499 0.0000
vt 0.4231 0.0499 0.0000
vt 0.4231 0.0671 0.0000
vt 0.4293 0.0671 0.0000
vt 0.4293 0.1283 0.0000
vt 0.4231 0.1283 0.0000
vt 0.4231 0.1455 0.0000
vt 0.2706 0.1455 0.0000
vt 0.2705 0.2661 0.0000
vt 0.3753 0.2264 0.0000
vt 0.5063 0.1634 0.0000
vt 0.5085 0.1619 0.0000
vt 0.5087 0.1620 0.0000
vt 0.5066 0.1635 0.0000
vt 0.5091 0.1612 0.0000
vt 0.5093 0.1615 0.0000
vt 0.5194 0.1606 0.0000
vt 0.5193 0.1608 0.0000
vt 0.5201 0.1611 0.0000
vt 0.5200 0.1613 0.0000
vt 0.5225 0.1625 0.0000
vt 0.5223 0.1626 0.0000
vt 0.5253 0.2108 0.0000
vt 0.5250 0.2106 0.0000
vt 0.5231 0.2123 0.0000
vt 0.5229 0.2121 0.0000
vt 0.5224 0.2129 0.0000
vt 0.5223 0.2127 0.0000
vt 0.5122 0.2129 0.0000
vt 0.5122 0.2127 0.0000
vt 0.5114 0.2125 0.0000
vt 0.5115 0.2123 0.0000
vt 0.5085 0.2125 0.0000
vt 0.5087 0.2123 0.0000
vt 0.5073 0.1920 0.0000
vt 0.5075 0.1918 0.0000
vt 0.5037 0.1920 0.0000
vt 0.5037 0.1918 0.0000
vt 0.4839 0.1859 0.0000
vt 0.4838 0.1857 0.0000
vt 0.4753 0.2048 0.0000
vt 0.4751 0.2046 0.0000
vt 0.4726 0.2055 0.0000
vt 0.4725 0.2053 0.0000
vt 0.4717 0.2060 0.0000
vt 0.4716 0.2057 0.0000
vt 0.4617 0.2038 0.0000
vt 0.4619 0.2036 0.0000
vt 0.4612 0.2030 0.0000
vt 0.4614 0.2029 0.0000
vt 0.4595 0.2011 0.0000
vt 0.4598 0.2011 0.0000
vt 0.4799 0.1501 0.0000
vt 0.4801 0.1503 0.0000
vt 0.4826 0.1494 0.0000
vt 0.4827 0.1495 0.0000
vt 0.4836 0.1489 0.0000
vt 0.4836 0.1492 0.0000
vt 0.4932 0.1519 0.0000
vt 0.4930 0.1521 0.0000
vt 0.4938 0.1525 0.0000
vt 0.4936 0.1527 0.0000
vt 0.4965 0.1534 0.0000
vt 0.4962 0.1535 0.0000
vt 0.4892 0.1726 0.0000
vt 0.4889 0.1728 0.0000
vt 0.5068 0.1781 0.0000
vt 0.5070 0.1784 0.0000
vt 0.5090 0.1623 0.0000
vt 0.5070 0.1637 0.0000
vt 0.5095 0.1618 0.0000
vt 0.5191 0.1612 0.0000
vt 0.5197 0.1616 0.0000
vt 0.5219 0.1628 0.0000
vt 0.5246 0.2105 0.0000
vt 0.5226 0.2118 0.0000
vt 0.5221 0.2123 0.0000
vt 0.5124 0.2123 0.0000
vt 0.5116 0.2119 0.0000
vt 0.5089 0.2121 0.0000
vt 0.5078 0.1916 0.0000
vt 0.5038 0.1914 0.0000
vt 0.4837 0.1854 0.0000
vt 0.4748 0.2043 0.0000
vt 0.4723 0.2050 0.0000
vt 0.4715 0.2053 0.0000
vt 0.4622 0.2033 0.0000
vt 0.4618 0.2027 0.0000
vt 0.4602 0.2010 0.0000
vt 0.4804 0.1506 0.0000
vt 0.4829 0.1499 0.0000
vt 0.4837 0.1496 0.0000
vt 0.4927 0.1524 0.0000
vt 0.4934 0.1530 0.0000
vt 0.4959 0.1537 0.0000
vt 0.4886 0.1729 0.0000
vt 0.5071 0.1785 0.0000
vt 0.0227 0.2964 0.0000
vt 0.0227 0.2325 0.0000
vt 0.1306 0.2325 0.0000
vt 0.1306 0.2964 0.0000
vt 0.8422 0.0542 0.0000
vt 0.9289 0.0542 0.0000
vt 0.9289 0.1034 0.0000
vt 0.8422 0.1034 0.0000
vt 0.4617 0.0544 0.0000
vt 0.6083 0.0544 0.0000
vt 0.6083 0.1036 0.0000
vt 0.4617 0.1036 0.0000
vt 0.6951 0.0544 0.0000
vt 0.6951 0.1036 0.0000
vt 0.6955 0.0542 0.0000
vt 0.6955 0.1034 0.0000
vt 0.0226 0.2206 0.0000
vt 0.0227 0.1567 0.0000
vt 0.1307 0.1569 0.0000
vt 0.1306 0.2208 0.0000
vt 0.6083 0.0543 0.0000
vt 0.6951 0.0543 0.0000
vt 0.6952 0.0542 0.0000
vt 0.8419 0.0542 0.0000
vt 0.8419 0.1035 0.0000
vt 0.6952 0.1035 0.0000
vt 0.9287 0.0542 0.0000
vt 0.9287 0.1035 0.0000
vt 0.4616 0.0543 0.0000
vt 0.4616 0.1036 0.0000
vt 0.6807 0.1362 0.0000
vt 0.6807 0.1877 0.0000
vt 0.5766 0.1877 0.0000
vt 0.5766 0.1362 0.0000
vt 0.6993 0.1253 0.0000
vt 0.6993 0.1947 0.0000
vt 0.0000 0.0000 0.0000
vt 1.0000 0.0000 0.0000
vt 1.0000 1.0000 0.0000
vt 0.0000 1.0000 0.0000
vt 0.5580 0.1949 0.0000
vt 0.5580 0.1253 0.0000
vt 0.4303 0.3782 0.0000
vt 0.4303 0.4510 0.0000
vt 0.2847 0.4510 0.0000
vt 0.2847 0.3782 0.0000
vt 0.3349 0.4458 0.0000
vt 0.3349 0.3955 0.0000
vt 0.3406 0.3873 0.0000
vt 0.3496 0.3805 0.0000
vt 0.3575 0.3782 0.0000
vt 0.3575 0.4458 0.0000
vt 0.3050 0.4101 0.0000
vt 0.3050 0.4034 0.0000
vt 0.3114 0.3955 0.0000
vt 0.3212 0.3924 0.0000
vt 0.3302 0.3928 0.0000
vt 0.3050 0.4458 0.0000
vt 0.3658 0.3796 0.0000
vt 0.3722 0.3834 0.0000
vt 0.3785 0.3896 0.0000
vt 0.3815 0.3951 0.0000
vt 0.3815 0.4457 0.0000
vt 0.3874 0.3928 0.0000
vt 0.3992 0.3928 0.0000
vt 0.4075 0.3971 0.0000
vt 0.4118 0.4039 0.0000
vt 0.4118 0.4103 0.0000
vt 0.4118 0.4457 0.0000
vt 0.2967 0.4102 0.0000
vt 0.2936 0.4458 0.0000
vt 0.2886 0.4412 0.0000
vt 0.2879 0.4374 0.0000
vt 0.2897 0.4349 0.0000
vt 0.2876 0.4327 0.0000
vt 0.2871 0.4274 0.0000
vt 0.2925 0.4241 0.0000
vt 0.2915 0.4148 0.0000
vt 0.2910 0.4205 0.0000
vt 0.4300 0.4300 0.0000
vt 0.4289 0.4328 0.0000
vt 0.4263 0.4349 0.0000
vt 0.4283 0.4374 0.0000
vt 0.4289 0.4403 0.0000
vt 0.4242 0.4440 0.0000
vt 0.4203 0.4457 0.0000
vt 0.4209 0.4104 0.0000
vt 0.4258 0.4154 0.0000
vt 0.4255 0.4209 0.0000
vt 0.4235 0.4232 0.0000
vt 0.4281 0.4262 0.0000
# 702 texture coords

g GoldenBay
usemtl GoldenBay
s 1
f 1/1/1 2/2/1 3/3/1 
f 3/3/1 4/4/1 1/1/1 
s 2
f 5/5/2 6/6/3 7/7/4 
f 7/7/4 8/8/5 5/5/2 
s 1
f 9/1/6 10/2/6 11/3/6 
f 11/3/6 12/4/6 9/1/6 
f 13/2/1 14/9/1 15/10/1 
f 15/10/1 16/3/1 13/2/1 
f 17/11/7 18/12/7 19/13/7 
f 19/13/7 20/14/7 17/11/7 
f 21/2/6 22/9/6 23/10/6 
f 23/10/6 24/3/6 21/2/6 
s 4
f 25/15/1 26/16/1 27/17/1 
f 27/17/1 28/18/1 25/15/1 
s 2
f 29/19/8 30/20/8 31/21/8 
f 31/21/8 32/22/8 29/19/8 
f 33/15/6 34/16/6 35/17/6 
f 35/17/6 36/18/6 33/15/6 
s 4
f 37/23/9 38/24/9 39/25/9 
f 39/25/9 40/26/9 37/23/9 
f 41/16/1 42/27/1 43/28/1 
f 43/28/1 44/17/1 41/16/1 
s 2
f 45/29/1 46/30/1 47/31/1 
f 47/31/1 48/32/1 45/29/1 
f 49/16/6 50/27/6 51/28/6 
f 51/28/6 52/17/6 49/16/6 
s 4
f 53/29/6 54/30/6 55/31/6 
f 55/31/6 56/32/6 53/29/6 
s 2
f 57/33/1 58/34/1 59/35/10 
f 59/35/10 60/36/1 57/33/1 
f 61/37/1 62/38/1 63/39/1 
f 63/39/1 64/40/10 61/37/1 
f 65/33/6 66/34/6 67/35/6 
f 67/35/6 68/36/6 65/33/6 
f 69/37/6 70/38/6 71/39/6 
f 71/39/6 72/40/6 69/37/6 
s 8
f 27/17/7 73/33/7 74/41/7 
f 74/41/7 28/18/7 27/17/7 
f 44/17/7 43/28/7 58/34/7 
f 58/34/7 57/33/7 44/17/7 
s 4
f 48/32/11 47/31/11 62/38/11 
f 62/38/11 61/37/11 48/32/11 
f 31/21/11 75/42/11 76/43/11 
f 76/43/11 32/22/11 31/21/11 
f 35/17/11 77/33/11 78/41/11 
f 78/41/11 36/18/11 35/17/11 
f 52/17/11 51/28/11 66/34/11 
f 66/34/11 65/33/11 52/17/11 
s 8
f 56/32/7 55/31/7 70/38/7 
f 70/38/7 69/37/7 56/32/7 
f 39/25/7 79/44/7 80/45/7 
f 80/45/7 40/26/7 39/25/7 
s 4
f 81/36/11 2/2/11 1/1/11 
f 1/1/11 82/46/11 81/36/11 
f 60/36/11 59/35/11 14/9/11 
f 14/9/11 13/2/11 60/36/11 
f 64/40/7 63/39/7 16/3/7 
f 16/3/7 15/10/7 64/40/7 
s 2
f 76/43/1 75/42/1 83/47/1 
f 83/47/1 84/48/1 76/43/1 
s 4
f 85/36/7 10/2/7 9/1/7 
f 9/1/7 86/46/7 85/36/7 
f 68/36/7 67/35/7 22/9/7 
f 22/9/7 21/2/7 68/36/7 
f 72/40/11 71/39/11 24/3/11 
f 24/3/11 23/10/11 72/40/11 
s 2
f 80/45/6 79/44/6 87/49/6 
f 87/49/6 88/50/6 80/45/6 
f 89/51/12 90/52/12 6/6/3 
f 6/6/3 5/5/2 89/51/12 
f 91/53/13 92/54/14 93/55/15 
f 93/55/15 94/56/15 91/53/13 
f 54/57/12 53/58/12 95/59/16 
f 95/59/16 96/60/12 54/57/12 
f 42/61/17 41/62/17 97/63/17 
f 97/63/17 98/64/18 42/61/17 
s 4
f 97/63/19 96/60/19 17/11/19 
f 17/11/19 20/14/19 97/63/19 
s 8
f 96/60/1 95/59/1 18/12/1 
f 18/12/1 17/11/1 96/60/1 
f 98/64/6 97/63/6 20/14/6 
f 20/14/6 19/13/6 98/64/6 
s 2
f 45/65/1 48/66/1 99/67/1 
f 99/67/1 100/68/1 45/65/1 
s 4
f 48/66/11 61/69/11 101/70/11 
f 101/70/11 99/67/11 48/66/11 
s 2
f 59/71/10 58/72/1 102/73/10 
f 59/71/10 102/73/10 101/70/10 
f 64/74/10 59/71/10 101/70/10 
f 61/69/1 64/74/10 101/70/10 
s 8
f 58/72/7 43/75/7 103/76/7 
f 103/76/7 102/73/7 58/72/7 
s 4
f 43/75/1 42/77/1 104/78/1 
f 104/78/1 103/76/1 43/75/1 
s 2
f 95/79/16 53/80/12 105/81/20 
f 95/79/16 105/81/20 104/82/21 
f 98/83/18 95/79/16 104/82/21 
f 42/84/17 98/83/18 104/82/21 
s 4
f 53/85/6 56/86/6 106/87/6 
f 106/87/6 105/88/6 53/85/6 
s 8
f 56/86/7 69/89/7 107/90/7 
f 107/90/7 106/87/7 56/86/7 
s 2
f 67/91/6 66/92/6 108/93/6 
f 67/91/6 108/93/6 107/90/6 
f 72/94/6 67/91/6 107/90/6 
f 69/89/6 72/94/6 107/90/6 
s 4
f 66/92/11 51/95/11 109/96/11 
f 109/96/11 108/93/11 66/92/11 
s 2
f 51/95/6 50/97/6 110/98/6 
f 110/98/6 109/96/6 51/95/6 
s 4
f 111/99/22 112/100/22 110/101/22 
f 110/101/22 50/102/22 111/99/22 
s 1
f 113/1/23 114/2/23 115/3/23 
f 115/3/23 116/4/23 113/1/23 
f 117/1/24 118/2/24 119/3/24 
f 119/3/24 120/4/24 117/1/24 
f 121/5/25 122/6/25 123/7/25 
f 123/7/25 124/8/25 121/5/25 
f 125/2/23 126/9/23 127/10/23 
f 127/10/23 128/3/23 125/2/23 
f 129/2/24 130/9/24 131/10/24 
f 131/10/24 132/3/24 129/2/24 
f 133/11/26 134/12/26 135/13/26 
f 135/13/26 136/14/26 133/11/26 
f 137/15/23 138/16/23 139/17/23 
f 139/17/23 140/18/23 137/15/23 
s 4
f 141/103/27 142/104/27 143/105/27 
f 143/105/27 144/106/27 141/103/27 
f 145/15/24 146/16/24 147/17/24 
f 147/17/24 148/18/24 145/15/24 
s 1
f 149/107/28 150/108/28 151/109/28 
f 151/109/28 152/110/28 149/107/28 
f 153/16/23 154/27/23 155/28/23 
f 155/28/23 156/17/23 153/16/23 
s 4
f 157/29/27 158/30/27 159/31/27 
f 159/31/27 160/32/27 157/29/27 
f 161/16/24 162/27/24 163/28/24 
f 163/28/24 164/17/24 161/16/24 
s 1
f 165/29/24 166/30/24 167/31/24 
f 167/31/24 168/32/24 165/29/24 
f 169/33/23 170/34/23 171/35/29 
f 171/35/29 172/36/23 169/33/23 
f 173/37/27 174/38/27 175/39/27 
f 175/39/27 176/40/29 173/37/27 
f 177/33/24 178/34/24 179/35/30 
f 179/35/30 180/36/24 177/33/24 
f 181/37/24 182/38/24 183/39/24 
f 183/39/24 184/40/24 181/37/24 
s 4
f 139/17/31 185/33/31 186/41/31 
f 186/41/31 140/18/31 139/17/31 
f 156/17/31 155/28/31 170/34/31 
f 170/34/31 169/33/31 156/17/31 
s 8
f 160/32/26 159/31/26 174/38/26 
f 174/38/26 173/37/26 160/32/26 
f 143/105/26 187/111/26 188/112/26 
f 188/112/26 144/106/26 143/105/26 
f 147/17/32 189/33/32 190/41/32 
f 190/41/32 148/18/32 147/17/32 
f 164/17/32 163/28/32 178/34/32 
f 178/34/32 177/33/32 164/17/32 
s 4
f 168/32/31 167/31/31 182/38/31 
f 182/38/31 181/37/31 168/32/31 
f 151/109/31 191/113/31 192/114/31 
f 192/114/31 152/110/31 151/109/31 
s 2
f 193/36/26 114/2/26 113/1/26 
f 113/1/26 194/46/26 193/36/26 
f 172/36/26 171/35/26 126/9/26 
f 126/9/26 125/2/26 172/36/26 
f 176/40/31 175/39/31 128/3/31 
f 128/3/31 127/10/31 176/40/31 
s 1
f 188/112/23 187/111/23 195/115/23 
f 195/115/23 196/116/23 188/112/23 
f 189/33/24 197/36/24 198/46/24 
f 198/46/24 190/41/24 189/33/24 
s 2
f 180/36/31 179/35/31 130/9/31 
f 130/9/31 129/2/31 180/36/31 
f 184/40/26 183/39/26 132/3/26 
f 132/3/26 131/10/26 184/40/26 
f 199/117/32 200/118/32 201/119/32 
f 201/119/32 202/120/32 199/117/32 
s 1
f 203/51/25 204/52/26 122/6/25 
f 122/6/25 121/5/25 203/51/25 
f 205/121/33 206/122/33 207/123/34 
f 207/123/34 208/124/34 205/121/33 
f 158/57/26 157/58/26 209/59/26 
f 209/59/26 210/60/26 158/57/26 
f 162/61/26 161/62/26 211/63/26 
f 211/63/26 212/64/25 162/61/26 
s 2
f 211/63/19 210/60/19 133/11/19 
f 133/11/19 136/14/19 211/63/19 
s 4
f 210/60/24 209/59/24 134/12/24 
f 134/12/24 133/11/24 210/60/24 
f 212/64/23 211/63/23 136/14/23 
f 136/14/23 135/13/23 212/64/23 
f 157/125/27 160/126/27 213/127/27 
f 213/127/27 214/128/27 157/125/27 
s 8
f 160/126/26 173/129/26 215/130/26 
f 215/130/26 213/127/26 160/126/26 
s 1
f 171/131/29 170/132/23 216/133/23 
f 171/131/29 216/133/23 215/130/35 
f 176/134/29 171/131/29 215/130/35 
f 173/129/27 176/134/29 215/130/35 
s 4
f 170/132/31 155/135/31 217/136/31 
f 217/136/31 216/133/31 170/132/31 
s 1
f 155/135/23 154/137/23 218/138/23 
f 218/138/23 217/136/23 155/135/23 
s 4
f 219/139/31 220/140/31 218/141/31 
f 218/141/31 154/142/31 219/139/31 
s 1
f 165/143/24 168/144/24 221/145/24 
f 221/145/24 222/146/24 165/143/24 
s 4
f 168/144/31 181/147/31 223/148/31 
f 223/148/31 221/145/31 168/144/31 
s 1
f 179/149/30 178/150/24 224/151/30 
f 179/149/30 224/151/30 223/148/30 
f 184/152/24 179/149/30 223/148/30 
f 181/147/24 184/152/24 223/148/30 
s 8
f 178/150/32 163/153/32 225/154/32 
f 225/154/32 224/151/32 178/150/32 
s 4
f 163/153/24 162/155/24 226/156/24 
f 226/156/24 225/154/24 163/153/24 
s 1
f 209/157/26 157/158/26 214/159/26 
f 209/157/26 214/159/26 226/82/25 
f 212/160/25 209/157/26 226/82/25 
f 162/161/26 212/160/25 226/82/25 
s 4
f 227/162/36 228/163/36 229/164/36 
f 229/164/36 230/165/36 227/162/36 
f 46/166/36 45/167/36 231/168/36 
f 231/168/36 232/169/36 46/166/36 
f 45/65/36 100/68/36 233/170/36 
f 233/170/36 231/171/36 45/65/36 
f 234/172/37 235/173/37 236/174/37 
f 236/174/37 237/175/37 234/172/37 
f 50/176/22 49/177/22 238/178/22 
f 238/178/22 111/179/22 50/176/22 
f 239/180/31 240/181/31 241/182/31 
f 241/182/31 242/183/31 239/180/31 
f 166/181/31 165/184/31 243/185/31 
f 243/185/31 244/182/31 166/181/31 
f 165/143/31 222/146/31 245/186/31 
f 245/186/31 243/187/31 165/143/31 
f 246/188/31 247/189/31 248/190/31 
f 248/190/31 249/191/31 246/188/31 
f 154/192/31 153/193/31 250/194/31 
f 250/194/31 219/195/31 154/192/31 
s 8
f 236/196/38 251/197/39 252/198/39 
f 252/198/39 237/199/38 236/196/38 
f 111/200/40 238/201/40 253/202/41 
f 253/202/41 254/203/41 111/200/40 
f 112/100/40 111/99/40 254/204/41 
f 254/204/41 255/205/41 112/100/40 
f 250/202/42 232/206/42 231/207/42 
f 231/207/42 219/203/42 250/202/42 
f 248/208/43 256/209/43 257/210/43 
f 257/210/43 249/211/43 248/208/43 
f 219/139/42 231/212/42 233/213/42 
f 233/213/42 220/140/42 219/139/42 
f 251/214/39 258/215/44 259/216/44 
f 259/216/44 252/217/39 251/214/39 
f 253/202/41 244/206/45 243/207/45 
f 243/207/45 254/203/41 253/202/41 
f 254/218/41 243/219/45 245/220/45 
f 245/220/45 255/221/41 254/218/41 
s 4
f 12/4/11 11/3/11 260/39/11 
f 260/39/11 261/222/11 12/4/11 
s 2
f 78/41/6 77/33/6 85/36/6 
f 85/36/6 86/46/6 78/41/6 
f 74/41/1 73/33/1 81/36/1 
f 81/36/1 82/46/1 74/41/1 
s 4
f 4/4/7 3/3/7 262/39/7 
f 262/39/7 263/222/7 4/4/7 
s 1
f 186/41/23 185/33/23 193/36/23 
f 193/36/23 194/46/23 186/41/23 
s 2
f 116/4/31 115/3/31 264/39/31 
f 264/39/31 265/222/31 116/4/31 
s 1
f 192/114/24 191/113/24 199/117/24 
f 199/117/24 202/120/24 192/114/24 
s 2
f 266/223/31 267/224/31 268/225/31 
f 268/225/31 269/226/31 266/223/31 
s 1
f 270/227/1 271/228/1 272/229/1 
f 272/229/1 273/230/1 270/227/1 
s 2
f 274/231/46 94/56/15 93/55/15 
f 93/55/15 275/232/47 274/231/46 
s 1
f 276/233/6 277/234/6 278/235/6 
f 278/235/6 279/236/6 276/233/6 
s 4
f 91/237/8 280/238/8 281/239/8 
f 281/239/8 92/240/8 91/237/8 
s 2
f 227/241/1 282/242/1 283/31/1 
f 283/31/1 228/30/1 227/241/1 
f 234/243/9 284/244/9 285/245/9 
f 285/245/9 235/246/9 234/243/9 
s 4
f 89/241/6 286/242/6 287/31/6 
f 287/31/6 90/30/6 89/241/6 
s 8
f 280/238/7 288/247/7 289/248/7 
f 289/248/7 281/239/7 280/238/7 
s 4
f 282/242/11 290/249/11 291/38/11 
f 291/38/11 283/31/11 282/242/11 
f 284/244/11 292/250/11 293/251/11 
f 293/251/11 285/245/11 284/244/11 
s 8
f 286/242/7 294/249/7 295/38/7 
f 295/38/7 287/31/7 286/242/7 
s 4
f 296/252/11 270/227/11 273/230/11 
f 273/230/11 297/253/11 296/252/11 
s 2
f 290/249/1 263/222/1 262/39/1 
f 262/39/1 291/38/1 290/249/1 
s 4
f 298/254/7 276/233/7 279/236/7 
f 279/236/7 299/255/7 298/254/7 
s 2
f 294/249/6 261/222/6 260/39/6 
f 260/39/6 295/38/6 294/249/6 
f 37/256/48 274/257/46 275/258/47 
f 275/258/47 38/259/48 37/256/48 
f 25/260/49 8/8/5 7/7/4 
f 7/7/4 26/261/17 25/260/49 
s 1
f 300/262/23 301/263/23 302/264/23 
f 302/264/23 303/265/23 300/262/23 
f 266/223/24 201/119/24 200/118/24 
f 200/118/24 267/224/24 266/223/24 
f 304/266/50 208/124/34 207/123/34 
f 207/123/34 305/267/50 304/266/50 
f 246/268/23 306/269/23 307/270/23 
f 307/270/23 247/271/23 246/268/23 
s 4
f 203/241/27 308/242/27 309/31/27 
f 309/31/27 204/30/27 203/241/27 
f 205/272/24 310/273/24 311/274/24 
f 311/274/24 206/275/24 205/272/24 
s 1
f 239/241/24 312/242/24 313/31/24 
f 313/31/24 240/30/24 239/241/24 
s 4
f 306/269/31 314/276/31 315/277/31 
f 315/277/31 307/270/31 306/269/31 
s 8
f 308/242/26 316/249/26 317/38/26 
f 317/38/26 309/31/26 308/242/26 
f 310/273/26 318/278/26 319/279/26 
f 319/279/26 311/274/26 310/273/26 
s 4
f 312/242/31 320/249/31 321/38/31 
f 321/38/31 313/31/31 312/242/31 
s 2
f 322/280/26 300/262/26 303/265/26 
f 303/265/26 323/281/26 322/280/26 
s 1
f 316/249/27 265/222/27 264/39/27 
f 264/39/27 317/38/27 316/249/27 
f 318/278/24 269/226/24 268/225/24 
f 268/225/24 319/279/24 318/278/24 
s 2
f 324/222/26 120/4/26 119/3/26 
f 119/3/26 325/39/26 324/222/26 
s 1
f 141/282/51 304/283/50 305/284/50 
f 305/284/50 142/285/51 141/282/51 
f 145/260/25 124/8/25 123/7/25 
f 123/7/25 146/261/26 145/260/25 
s 4
f 29/286/52 257/210/52 256/209/52 
f 256/209/52 30/287/52 29/286/52 
f 33/288/22 326/289/22 327/290/22 
f 327/290/22 34/291/22 33/288/22 
f 149/292/53 259/293/53 258/294/53 
f 258/294/53 150/295/53 149/292/53 
f 137/296/54 328/297/54 329/194/54 
f 329/194/54 138/193/31 137/296/54 
s 8
f 326/298/55 330/299/41 331/202/56 
f 331/202/56 327/201/55 326/298/55 
f 328/299/57 230/300/42 229/206/42 
f 229/206/42 329/202/57 328/299/57 
f 330/299/41 242/300/45 241/206/45 
f 241/206/45 331/202/56 330/299/41 
s 4
f 277/234/11 88/50/11 87/49/11 
f 87/49/11 278/235/11 277/234/11 
s 2
f 292/250/6 298/254/6 299/255/6 
f 299/255/6 293/251/6 292/250/6 
f 288/247/1 296/252/1 297/253/1 
f 297/253/1 289/248/1 288/247/1 
s 4
f 271/228/7 84/48/7 83/47/7 
f 83/47/7 272/229/7 271/228/7 
s 1
f 314/276/27 322/280/27 323/281/27 
f 323/281/27 315/277/27 314/276/27 
s 2
f 301/301/31 196/116/31 195/115/31 
f 195/115/31 302/302/31 301/301/31 
s 1
f 320/249/24 324/222/24 325/39/24 
f 325/39/24 321/38/24 320/249/24 
s 2
f 117/1/31 198/46/31 197/36/31 
f 197/36/31 118/2/31 117/1/31 
s off
f 47/303/19 46/304/19 29/305/19 
f 29/305/19 32/306/19 47/303/19 
f 46/304/19 232/307/19 257/308/19 
f 257/308/19 29/305/19 46/304/19 
f 232/307/19 250/309/19 249/310/19 
f 249/310/19 257/308/19 232/307/19 
f 250/309/19 153/311/19 246/312/19 
f 246/312/19 249/310/19 250/309/19 
f 153/311/19 156/313/19 306/314/19 
f 306/314/19 246/312/19 153/311/19 
f 156/313/19 169/315/19 314/316/19 
f 314/316/19 306/314/19 156/313/19 
f 169/315/19 172/317/19 322/318/19 
f 322/318/19 314/316/19 169/315/19 
f 172/317/19 125/319/19 300/320/19 
f 300/320/19 322/318/19 172/317/19 
f 125/319/19 128/321/19 301/322/19 
f 301/322/19 300/320/19 125/319/19 
f 128/321/19 175/323/19 196/324/19 
f 196/324/19 301/322/19 128/321/19 
f 175/323/19 174/325/19 188/326/19 
f 188/326/19 196/324/19 175/323/19 
f 174/325/19 159/327/19 144/328/19 
f 144/328/19 188/326/19 174/325/19 
f 159/327/19 158/329/19 141/330/19 
f 141/330/19 144/328/19 159/327/19 
f 158/329/19 210/331/19 304/332/19 
f 304/332/19 141/330/19 158/329/19 
f 210/331/19 211/333/19 208/334/19 
f 208/334/19 304/332/19 210/331/19 
f 211/333/19 161/335/19 205/336/19 
f 205/336/19 208/334/19 211/333/19 
f 161/335/19 164/337/19 310/338/19 
f 310/338/19 205/336/19 161/335/19 
f 164/337/19 177/339/19 318/340/19 
f 318/340/19 310/338/19 164/337/19 
f 177/339/19 180/341/19 269/342/19 
f 269/342/19 318/340/19 177/339/19 
f 180/341/19 129/343/19 266/344/19 
f 266/344/19 269/342/19 180/341/19 
f 129/343/19 132/345/19 201/346/19 
f 201/346/19 266/344/19 129/343/19 
f 132/345/19 183/347/19 202/348/19 
f 202/348/19 201/346/19 132/345/19 
f 183/347/19 182/349/19 192/350/19 
f 192/350/19 202/348/19 183/347/19 
f 182/349/19 167/351/19 152/352/19 
f 152/352/19 192/350/19 182/349/19 
f 167/351/19 166/353/19 149/354/19 
f 149/354/19 152/352/19 167/351/19 
f 166/353/19 244/355/19 259/356/19 
f 259/356/19 149/354/19 166/353/19 
f 244/355/19 253/357/19 252/358/19 
f 252/358/19 259/356/19 244/355/19 
f 253/357/19 238/359/19 237/360/19 
f 237/360/19 252/358/19 253/357/19 
f 238/359/19 49/361/19 234/362/19 
f 234/362/19 237/360/19 238/359/19 
f 49/361/19 52/363/19 284/364/19 
f 284/364/19 234/362/19 49/361/19 
f 52/363/19 65/365/19 292/366/19 
f 292/366/19 284/364/19 52/363/19 
f 65/365/19 68/367/19 298/368/19 
f 298/368/19 292/366/19 65/365/19 
f 68/367/19 21/369/19 276/370/19 
f 276/370/19 298/368/19 68/367/19 
f 21/369/19 24/371/19 277/372/19 
f 277/372/19 276/370/19 21/369/19 
f 24/371/19 71/373/19 88/374/19 
f 88/374/19 277/372/19 24/371/19 
f 71/373/19 70/375/19 80/376/19 
f 80/376/19 88/374/19 71/373/19 
f 70/375/19 55/377/19 40/378/19 
f 40/378/19 80/376/19 70/375/19 
f 55/377/19 54/379/19 37/380/19 
f 37/380/19 40/378/19 55/377/19 
f 54/379/19 96/381/19 274/382/19 
f 274/382/19 37/380/19 54/379/19 
f 96/381/19 97/383/19 94/384/19 
f 94/384/19 274/382/19 96/381/19 
f 97/383/19 41/385/19 91/386/19 
f 91/386/19 94/384/19 97/383/19 
f 41/385/19 44/387/19 280/388/19 
f 280/388/19 91/386/19 41/385/19 
f 44/387/19 57/389/19 288/390/19 
f 288/390/19 280/388/19 44/387/19 
f 57/389/19 60/391/19 296/392/19 
f 296/392/19 288/390/19 57/389/19 
f 60/391/19 13/393/19 270/394/19 
f 270/394/19 296/392/19 60/391/19 
f 13/393/19 16/395/19 271/396/19 
f 271/396/19 270/394/19 13/393/19 
f 16/395/19 63/397/19 84/398/19 
f 84/398/19 271/396/19 16/395/19 
f 63/397/19 62/399/19 76/400/19 
f 76/400/19 84/398/19 63/397/19 
f 62/399/19 47/303/19 32/306/19 
f 32/306/19 76/400/19 62/399/19 
f 3/401/58 2/402/58 273/403/58 
f 273/403/58 272/404/58 3/401/58 
f 2/402/58 81/405/58 297/406/58 
f 297/406/58 273/403/58 2/402/58 
f 81/405/58 73/407/58 289/408/58 
f 289/408/58 297/406/58 81/405/58 
f 73/407/58 27/409/58 281/410/58 
f 281/410/58 289/408/58 73/407/58 
f 27/409/58 26/411/58 92/412/58 
f 92/412/58 281/410/58 27/409/58 
f 26/411/58 7/413/58 93/414/58 
f 93/414/58 92/412/58 26/411/58 
f 7/413/58 6/415/58 275/416/58 
f 275/416/58 93/414/58 7/413/58 
f 6/415/58 90/417/58 38/418/58 
f 38/418/58 275/416/58 6/415/58 
f 90/417/58 287/419/58 39/420/58 
f 39/420/58 38/418/58 90/417/58 
f 287/419/58 295/421/58 79/422/58 
f 79/422/58 39/420/58 287/419/58 
f 295/421/58 260/423/58 87/424/58 
f 87/424/58 79/422/58 295/421/58 
f 260/423/58 11/425/58 278/426/58 
f 278/426/58 87/424/58 260/423/58 
f 11/425/58 10/427/58 279/428/58 
f 279/428/58 278/426/58 11/425/58 
f 10/427/58 85/429/58 299/430/58 
f 299/430/58 279/428/58 10/427/58 
f 85/429/58 77/431/58 293/432/58 
f 293/432/58 299/430/58 85/429/58 
f 77/431/58 35/433/58 285/434/58 
f 285/434/58 293/432/58 77/431/58 
f 35/433/58 34/435/58 235/436/58 
f 235/436/58 285/434/58 35/433/58 
f 34/435/58 327/437/58 236/438/58 
f 236/438/58 235/436/58 34/435/58 
f 327/437/58 331/439/58 251/440/58 
f 251/440/58 236/438/58 327/437/58 
f 331/439/58 241/441/58 258/442/58 
f 258/442/58 251/440/58 331/439/58 
f 241/441/58 240/443/58 150/444/58 
f 150/444/58 258/442/58 241/441/58 
f 240/443/58 313/445/58 151/446/58 
f 151/446/58 150/444/58 240/443/58 
f 313/445/58 321/447/58 191/447/58 
f 191/447/58 151/446/58 313/445/58 
f 321/447/58 325/448/58 199/449/58 
f 199/449/58 191/447/58 321/447/58 
f 325/448/58 119/450/58 200/451/58 
f 200/451/58 199/449/58 325/448/58 
f 119/450/58 118/452/58 267/453/58 
f 267/453/58 200/451/58 119/450/58 
f 118/452/58 197/454/58 268/455/58 
f 268/455/58 267/453/58 118/452/58 
f 197/454/58 189/456/58 319/457/58 
f 319/457/58 268/455/58 197/454/58 
f 189/456/58 147/458/58 311/459/58 
f 311/459/58 319/457/58 189/456/58 
f 147/458/58 146/460/58 206/461/58 
f 206/461/58 311/459/58 147/458/58 
f 146/460/58 123/462/58 207/463/58 
f 207/463/58 206/461/58 146/460/58 
f 123/462/58 122/464/58 305/465/58 
f 305/465/58 207/463/58 123/462/58 
f 122/464/58 204/466/58 142/467/58 
f 142/467/58 305/465/58 122/464/58 
f 204/466/58 309/468/58 143/469/58 
f 143/469/58 142/467/58 204/466/58 
f 309/468/58 317/470/58 187/471/58 
f 187/471/58 143/469/58 309/468/58 
f 317/470/58 264/472/58 195/473/58 
f 195/473/58 187/471/58 317/470/58 
f 264/472/58 115/474/58 302/475/58 
f 302/475/58 195/473/58 264/472/58 
f 115/474/58 114/476/58 303/477/58 
f 303/477/58 302/475/58 115/474/58 
f 114/476/58 193/478/58 323/479/58 
f 323/479/58 303/477/58 114/476/58 
f 193/478/58 185/480/58 315/481/58 
f 315/481/58 323/479/58 193/478/58 
f 185/480/58 139/482/58 307/482/58 
f 307/482/58 315/481/58 185/480/58 
f 139/482/58 138/483/58 247/484/58 
f 247/484/58 307/482/58 139/482/58 
f 138/483/58 329/485/58 248/486/58 
f 248/486/58 247/484/58 138/483/58 
f 329/485/58 229/487/58 256/488/58 
f 256/488/58 248/486/58 329/485/58 
f 229/487/58 228/489/58 30/304/58 
f 30/304/58 256/488/58 229/487/58 
f 228/489/58 283/490/58 31/491/58 
f 31/491/58 30/304/58 228/489/58 
f 283/490/58 291/492/58 75/493/58 
f 75/493/58 31/491/58 283/490/58 
f 291/492/58 262/494/58 83/495/58 
f 83/495/58 75/493/58 291/492/58 
f 262/494/58 3/401/58 272/404/58 
f 272/404/58 83/495/58 262/494/58 
f 332/496/19 333/497/19 334/498/19 
f 335/499/19 336/500/19 337/501/19 
f 335/499/19 337/501/19 338/502/19 
f 338/502/19 339/503/19 340/504/19 
f 338/502/19 340/504/19 341/505/19 
f 335/499/19 338/502/19 341/505/19 
f 341/505/19 342/506/19 343/507/19 
f 343/507/19 344/508/19 345/509/19 
f 345/509/19 346/510/19 347/511/19 
f 347/511/19 348/512/19 349/513/19 
f 345/509/19 347/511/19 349/513/19 
f 345/509/19 349/513/19 350/514/19 
f 350/514/19 351/515/19 352/516/19 
f 350/514/19 352/516/19 353/517/19 
f 353/517/19 354/518/19 355/519/19 
f 353/517/19 355/519/19 356/520/19 
f 350/514/19 353/517/19 356/520/19 
f 345/509/19 350/514/19 356/520/19 
f 356/520/19 357/521/19 358/522/19 
f 345/509/19 356/520/19 358/522/19 
f 343/507/19 345/509/19 358/522/19 
f 343/507/19 358/522/19 359/523/19 
f 341/505/19 343/507/19 359/523/19 
f 335/499/19 341/505/19 359/523/19 
f 334/498/19 335/499/19 359/523/19 
f 332/496/19 334/498/19 359/523/19 
f 332/496/19 359/523/19 360/524/19 
f 100/525/19 99/526/19 361/527/19 
f 361/527/19 362/528/19 100/525/19 
f 99/526/19 101/529/19 363/530/19 
f 363/530/19 361/527/19 99/526/19 
f 101/529/19 102/531/19 364/532/19 
f 364/532/19 363/530/19 101/529/19 
f 102/531/19 103/533/19 365/534/19 
f 365/534/19 364/532/19 102/531/19 
f 103/533/19 104/535/19 366/536/19 
f 366/536/19 365/534/19 103/533/19 
f 104/535/19 105/537/19 367/538/19 
f 367/538/19 366/536/19 104/535/19 
f 105/537/19 106/539/19 368/540/19 
f 368/540/19 367/538/19 105/537/19 
f 106/539/19 107/541/19 369/542/19 
f 369/542/19 368/540/19 106/539/19 
f 107/541/19 108/543/19 370/544/19 
f 370/544/19 369/542/19 107/541/19 
f 108/543/19 109/545/19 371/546/19 
f 371/546/19 370/544/19 108/543/19 
f 109/545/19 110/547/19 372/548/19 
f 372/548/19 371/546/19 109/545/19 
f 110/547/19 112/549/19 373/550/19 
f 373/550/19 372/548/19 110/547/19 
f 112/549/19 255/551/19 374/552/19 
f 374/552/19 373/550/19 112/549/19 
f 255/551/19 245/553/19 375/554/19 
f 375/554/19 374/552/19 255/551/19 
f 245/553/19 222/555/19 376/556/19 
f 376/556/19 375/554/19 245/553/19 
f 222/555/19 221/557/19 377/558/19 
f 377/558/19 376/556/19 222/555/19 
f 221/557/19 223/559/19 378/560/19 
f 378/560/19 377/558/19 221/557/19 
f 223/559/19 224/561/19 379/562/19 
f 379/562/19 378/560/19 223/559/19 
f 224/561/19 225/563/19 380/564/19 
f 380/564/19 379/562/19 224/561/19 
f 225/563/19 226/565/19 381/566/19 
f 381/566/19 380/564/19 225/563/19 
f 226/565/19 214/567/19 382/568/19 
f 382/568/19 381/566/19 226/565/19 
f 214/567/19 213/569/19 383/570/19 
f 383/570/19 382/568/19 214/567/19 
f 213/569/19 215/571/19 384/572/19 
f 384/572/19 383/570/19 213/569/19 
f 215/571/19 216/573/19 385/574/19 
f 385/574/19 384/572/19 215/571/19 
f 216/573/19 217/575/19 386/576/19 
f 386/576/19 385/574/19 216/573/19 
f 217/575/19 218/577/19 387/578/19 
f 387/578/19 386/576/19 217/575/19 
f 218/577/19 220/579/19 388/580/19 
f 388/580/19 387/578/19 218/577/19 
f 220/579/19 233/581/19 389/582/19 
f 389/582/19 388/580/19 220/579/19 
f 233/581/19 100/525/19 362/528/19 
f 362/528/19 389/582/19 233/581/19 
f 362/528/6 361/527/6 332/583/6 
f 332/583/6 360/584/6 362/528/6 
f 361/527/7 363/530/7 333/585/7 
f 333/585/7 332/583/7 361/527/7 
f 363/530/6 364/532/6 334/586/6 
f 334/586/6 333/585/6 363/530/6 
f 364/532/11 365/534/11 335/587/11 
f 335/587/11 334/586/11 364/532/11 
f 365/534/6 366/536/6 336/588/6 
f 336/588/6 335/587/6 365/534/6 
f 366/536/11 367/538/11 337/589/11 
f 337/589/11 336/588/11 366/536/11 
f 367/538/1 368/540/1 338/590/1 
f 338/590/1 337/589/1 367/538/1 
f 368/540/11 369/542/11 339/591/11 
f 339/591/11 338/590/11 368/540/11 
f 369/542/1 370/544/1 340/592/1 
f 340/592/1 339/591/1 369/542/1 
f 370/544/7 371/546/7 341/593/7 
f 341/593/7 340/592/7 370/544/7 
f 371/546/1 372/548/1 342/594/1 
f 342/594/1 341/593/1 371/546/1 
f 372/548/12 373/550/12 343/595/12 
f 343/595/12 342/594/12 372/548/12 
f 373/550/59 374/552/59 344/596/59 
f 344/596/59 343/595/59 373/550/59 
f 374/552/60 375/554/60 345/597/60 
f 345/597/60 344/596/60 374/552/60 
f 375/554/26 376/556/26 346/598/26 
f 346/598/26 345/597/26 375/554/26 
f 376/556/23 377/558/23 347/599/23 
f 347/599/23 346/598/23 376/556/23 
f 377/558/26 378/560/26 348/600/26 
f 348/600/26 347/599/26 377/558/26 
f 378/560/23 379/562/23 349/601/23 
f 349/601/23 348/600/23 378/560/23 
f 379/562/31 380/564/31 350/602/31 
f 350/602/31 349/601/31 379/562/31 
f 380/564/23 381/566/23 351/603/23 
f 351/603/23 350/602/23 380/564/23 
f 381/566/31 382/568/31 352/604/31 
f 352/604/31 351/603/31 381/566/31 
f 382/568/24 383/570/24 353/605/24 
f 353/605/24 352/604/24 382/568/24 
f 383/570/31 384/572/31 354/606/31 
f 354/606/31 353/605/31 383/570/31 
f 384/572/24 385/574/24 355/607/24 
f 355/607/24 354/606/24 384/572/24 
f 385/574/26 386/576/26 356/608/26 
f 356/608/26 355/607/26 385/574/26 
f 386/576/24 387/578/24 357/609/24 
f 357/609/24 356/608/24 386/576/24 
f 387/578/26 388/580/26 358/610/26 
f 358/610/26 357/609/26 387/578/26 
f 388/580/61 389/582/61 359/611/61 
f 359/611/61 358/610/61 388/580/61 
f 389/582/17 362/528/17 360/584/17 
f 360/584/17 359/611/17 389/582/17 
s 4
f 390/612/19 391/613/19 392/614/19 
f 392/614/19 393/615/19 390/612/19 
s 8
f 394/616/24 395/617/24 391/618/24 
f 391/618/24 390/619/24 394/616/24 
s 16
f 395/620/26 396/621/26 392/622/26 
f 392/622/26 391/623/26 395/620/26 
s 32
f 396/621/23 397/624/23 393/625/23 
f 393/625/23 392/622/23 396/621/23 
s 64
f 397/626/31 394/616/31 390/619/31 
f 390/619/31 393/627/31 397/626/31 
s 4
f 398/628/19 399/629/19 400/630/19 
f 400/630/19 401/631/19 398/628/19 
s 8
f 402/632/62 403/633/62 399/625/62 
f 399/625/62 398/622/62 402/632/62 
s 16
f 403/634/63 404/635/63 400/636/63 
f 400/636/63 399/637/63 403/634/63 
s 32
f 404/635/64 405/638/64 401/639/64 
f 401/639/64 400/636/64 404/635/64 
s 64
f 405/640/65 402/632/65 398/622/65 
f 398/622/65 401/641/65 405/640/65 
s 4
f 406/642/19 407/643/19 408/644/19 
f 408/644/19 409/645/19 406/642/19 
s 8
f 410/646/66 411/647/67 407/643/68 
f 407/643/68 406/642/69 410/646/66 
s 16
f 411/648/70 412/649/70 408/650/70 
f 408/650/70 407/651/70 411/648/70 
s 32
f 412/652/71 413/653/72 409/645/73 
f 409/645/73 408/644/74 412/652/71 
s 64
f 413/653/75 410/646/75 406/642/75 
f 406/642/75 409/645/75 413/653/75 
s 2
f 414/654/19 415/655/19 416/656/19 
f 416/656/19 417/657/19 414/654/19 
s 4
f 418/642/19 419/643/19 420/644/19 
f 420/644/19 421/645/19 418/642/19 
s 8
f 422/646/76 423/647/77 419/643/78 
f 419/643/78 418/642/79 422/646/76 
s 16
f 423/648/80 424/649/81 420/650/81 
f 420/650/81 419/651/80 423/648/80 
s 32
f 424/652/82 425/653/83 421/645/84 
f 421/645/84 420/644/85 424/652/82 
s 64
f 425/653/86 422/646/86 418/642/86 
f 418/642/86 421/645/86 425/653/86 
s 2
f 426/658/19 427/659/19 428/660/19 
f 426/658/19 428/660/19 429/661/19 
f 426/658/19 429/661/19 430/662/19 
f 426/658/19 430/662/19 431/663/19 
f 432/664/19 433/665/19 434/666/19 
f 432/664/19 434/666/19 435/667/19 
f 432/664/19 435/667/19 436/668/19 
f 437/669/19 432/664/19 436/668/19 
f 436/668/19 427/659/19 426/658/19 
f 437/669/19 436/668/19 426/658/19 
f 431/663/19 430/662/19 438/670/19 
f 431/663/19 438/670/19 439/671/19 
f 440/672/19 441/673/19 442/674/19 
f 439/671/19 440/672/19 442/674/19 
f 431/663/19 439/671/19 442/674/19 
f 442/674/19 441/673/19 443/675/19 
f 443/675/19 444/676/19 445/677/19 
f 442/674/19 443/675/19 445/677/19 
f 445/677/19 446/678/19 447/679/19 
f 445/677/19 447/679/19 448/680/19 
f 442/674/19 445/677/19 448/680/19 
f 449/681/19 432/664/19 437/669/19 
f 449/681/19 437/669/19 450/682/19 
f 450/682/19 451/683/19 452/684/19 
f 450/682/19 452/684/19 453/685/19 
f 453/685/19 454/686/19 455/687/19 
f 453/685/19 455/687/19 456/688/19 
f 450/682/19 453/685/19 456/688/19 
f 449/681/19 450/682/19 456/688/19 
f 457/689/19 449/681/19 456/688/19 
f 458/690/19 457/689/19 456/688/19 
f 459/691/19 460/692/19 461/693/19 
f 461/693/19 462/694/19 463/695/19 
f 461/693/19 463/695/19 464/696/19 
f 464/696/19 465/697/19 448/680/19 
f 464/696/19 448/680/19 447/679/19 
f 447/679/19 466/698/19 467/699/19 
f 467/699/19 468/700/19 469/701/19 
f 447/679/19 467/699/19 469/701/19 
f 464/696/19 447/679/19 469/701/19 
f 461/693/19 464/696/19 469/701/19 
f 459/691/19 461/693/19 469/701/19 
f 470/702/19 459/691/19 469/701/19 
# 800 faces

 